# xmcd
#
# Track frame offsets:
#	150
#	20402
#	39572
#	55110
#	72321
#	89440
#	109983
#	126497
#	144115
#	161236
#	180986
#	198891
#	217928
#	235804
#	253886
#	269807
#	286204
#	298865
#	315491
#	331162
#
# Disc length: 4725 seconds
#
# Revision: 0
# Processed by: cddbd v1.5.2PL0 Copyright (c) Steve Scherf et al.
# Submitted via: EasyCDDAExtractor 11.5.3.1
#
DISCID=30127314
DTITLE=Various Artist - Suomirokkia 13
DYEAR=2008
DGENRE=Top 40
TTITLE0=Chisu - Mun koti ei oo täällä
TTITLE1=Yö - Yö
TTITLE2=Jenni Vartiainen - Ihmisten edessä
TTITLE3=Herra Ylppö and Ihmiset - Sata vuotta
TTITLE4=Kauko Röyhkä and Riku Mattila - Kaikki menee hyvin kun olet nuori
TTITLE5=Ismo Alanko Teholla - Päästänkö irti
TTITLE6=Antti Kleemola - Mä en pelkää mitään
TTITLE7=Stella - Korkokengät
TTITLE8=Siiri Nordin - Mukula
TTITLE9=Jippu - Kuka teki minusta tän naisen
TTITLE10=Matti Johannes Koivu - Ei tippa tapa
TTITLE11=Musta Joutsen - Nyt kun minua jätetään
TTITLE12=51 Koodia - Lasimaailma
TTITLE13=Mokoma - Marras
TTITLE14=Popeda - Kuutamohullu
TTITLE15=Iskias - Huomisen kyynel
TTITLE16=Sielun Veljet - Rion satamassa
TTITLE17=Freud Marx Engels and Jung - Meidän rumien rakkauslaulu
TTITLE18=Haloo Helsinki! - Perjantaina
TTITLE19=Nightwish feat. Jonsu - Erämaan viimeinen
EXTD=
EXTT0=
EXTT1=
EXTT2=
EXTT3=
EXTT4=
EXTT5=
EXTT6=
EXTT7=
EXTT8=
EXTT9=
EXTT10=
EXTT11=
EXTT12=
EXTT13=
EXTT14=
EXTT15=
EXTT16=
EXTT17=
EXTT18=
EXTT19=
PLAYORDER=
